<mxfile host="app.diagrams.net" modified="2023-08-14T03:27:26.016Z" agent="Mozilla/5.0 (Windows NT 10.0; Win64; x64) AppleWebKit/537.36 (KHTML, like Gecko) Chrome/115.0.0.0 Safari/537.36" version="21.5.2" etag="r946a4aBJI9ztMP-q-qY" type="github">
  <diagram name="PÃ¡gina-1" id="jbV-qzwXYnHqVxu0yxK_">
    <mxGraphModel>
      <root>
        <mxCell id="0" />
        <mxCell id="1" parent="0" />
      </root>
    </mxGraphModel>
  </diagram>
</mxfile>
